<svg width="28" height="30" viewBox="0 0 28 30" fill="none" xmlns="http://www.w3.org/2000/svg">
<g filter="url(#filter0_d_4_31)">
<path d="M21 3H7C5.89543 3 5 3.89543 5 5V19C5 20.1046 5.89543 21 7 21H21C22.1046 21 23 20.1046 23 19V5C23 3.89543 22.1046 3 21 3Z" stroke="white" stroke-width="2" stroke-linecap="round" stroke-linejoin="round"/>
<path d="M11 11C12.1046 11 13 10.1046 13 9C13 7.89543 12.1046 7 11 7C9.89543 7 9 7.89543 9 9C9 10.1046 9.89543 11 11 11Z" stroke="white" stroke-width="2" stroke-linecap="round" stroke-linejoin="round"/>
<path d="M23 15L19.914 11.914C19.5389 11.5391 19.0303 11.3284 18.5 11.3284C17.9697 11.3284 17.4611 11.5391 17.086 11.914L8 21" stroke="white" stroke-width="2" stroke-linecap="round" stroke-linejoin="round"/>
</g>
<defs>
<filter id="filter0_d_4_31" x="-2" y="0" width="32" height="32" filterUnits="userSpaceOnUse" color-interpolation-filters="sRGB">
<feFlood flood-opacity="0" result="BackgroundImageFix"/>
<feColorMatrix in="SourceAlpha" type="matrix" values="0 0 0 0 0 0 0 0 0 0 0 0 0 0 0 0 0 0 127 0" result="hardAlpha"/>
<feOffset dy="4"/>
<feGaussianBlur stdDeviation="2"/>
<feComposite in2="hardAlpha" operator="out"/>
<feColorMatrix type="matrix" values="0 0 0 0 0 0 0 0 0 0 0 0 0 0 0 0 0 0 0.25 0"/>
<feBlend mode="normal" in2="BackgroundImageFix" result="effect1_dropShadow_4_31"/>
<feBlend mode="normal" in="SourceGraphic" in2="effect1_dropShadow_4_31" result="shape"/>
</filter>
</defs>
</svg>
